<svg id="Слой_1" data-name="Слой 1" xmlns="http://www.w3.org/2000/svg" viewBox="0 0 1383.23 615.21"><defs><style>.cls-1{fill:#1d1d1b;opacity:0.3;}</style></defs><polygon class="cls-1" points="0 341.51 0 569.09 20.96 569.09 20.96 615.21 119.18 615.21 119.18 595.44 258.73 597.24 258.73 42.05 135.95 42.05 135.95 328.63 17.97 328.63 17.97 339.71 0 341.51"/><polygon class="cls-1" points="1383.23 303.37 1383.23 72.52 1364.5 72.52 1364.5 3.02 1258.74 0 1258.74 22.96 1123.38 22.36 1121.56 580.75 1247.26 580.75 1243.64 311.83 1358.46 312.43 1357.25 305.18 1383.23 303.37"/><polygon class="cls-1" points="898.88 35.8 676.94 35.8 676.94 54.87 450.38 54.87 450.38 567.53 649.2 567.53 649.2 610.29 898.88 610.29 898.88 35.8"/></svg>